<svg id="visual" viewBox="0 0 1200 300" width="1200" height="300" xmlns="http://www.w3.org/2000/svg" xmlns:xlink="http://www.w3.org/1999/xlink" version="1.1"><rect x="0" y="0" width="1200" height="300" fill="#021b33"></rect><path d="M456 300L451.5 292.8C447 285.7 438 271.3 441 257C444 242.7 459 228.3 457.7 214C456.3 199.7 438.7 185.3 432 171.2C425.3 157 429.7 143 434.8 128.8C440 114.7 446 100.3 452.8 86C459.7 71.7 467.3 57.3 462 43C456.7 28.7 438.3 14.3 429.2 7.2L420 0L1200 0L1200 7.2C1200 14.3 1200 28.7 1200 43C1200 57.3 1200 71.7 1200 86C1200 100.3 1200 114.7 1200 128.8C1200 143 1200 157 1200 171.2C1200 185.3 1200 199.7 1200 214C1200 228.3 1200 242.7 1200 257C1200 271.3 1200 285.7 1200 292.8L1200 300Z" fill="#061178"></path><path d="M588 300L590 292.8C592 285.7 596 271.3 600.7 257C605.3 242.7 610.7 228.3 610 214C609.3 199.7 602.7 185.3 594.3 171.2C586 157 576 143 577.2 128.8C578.3 114.7 590.7 100.3 593.5 86C596.3 71.7 589.7 57.3 589.5 43C589.3 28.7 595.7 14.3 598.8 7.2L602 0L1200 0L1200 7.2C1200 14.3 1200 28.7 1200 43C1200 57.3 1200 71.7 1200 86C1200 100.3 1200 114.7 1200 128.8C1200 143 1200 157 1200 171.2C1200 185.3 1200 199.7 1200 214C1200 228.3 1200 242.7 1200 257C1200 271.3 1200 285.7 1200 292.8L1200 300Z" fill="#172690"></path><path d="M716 300L714.7 292.8C713.3 285.7 710.7 271.3 715.7 257C720.7 242.7 733.3 228.3 734 214C734.7 199.7 723.3 185.3 719 171.2C714.7 157 717.3 143 722.5 128.8C727.7 114.7 735.3 100.3 735.7 86C736 71.7 729 57.3 731.2 43C733.3 28.7 744.7 14.3 750.3 7.2L756 0L1200 0L1200 7.2C1200 14.3 1200 28.7 1200 43C1200 57.3 1200 71.7 1200 86C1200 100.3 1200 114.7 1200 128.8C1200 143 1200 157 1200 171.2C1200 185.3 1200 199.7 1200 214C1200 228.3 1200 242.7 1200 257C1200 271.3 1200 285.7 1200 292.8L1200 300Z" fill="#243ba9"></path><path d="M858 300L861 292.8C864 285.7 870 271.3 874.8 257C879.7 242.7 883.3 228.3 887 214C890.7 199.7 894.3 185.3 891.5 171.2C888.7 157 879.3 143 876 128.8C872.7 114.7 875.3 100.3 877 86C878.7 71.7 879.3 57.3 878.8 43C878.3 28.7 876.7 14.3 875.8 7.2L875 0L1200 0L1200 7.2C1200 14.3 1200 28.7 1200 43C1200 57.3 1200 71.7 1200 86C1200 100.3 1200 114.7 1200 128.8C1200 143 1200 157 1200 171.2C1200 185.3 1200 199.7 1200 214C1200 228.3 1200 242.7 1200 257C1200 271.3 1200 285.7 1200 292.8L1200 300Z" fill="#2f50c2"></path><path d="M1005 300L1007.2 292.8C1009.3 285.7 1013.7 271.3 1016.2 257C1018.7 242.7 1019.3 228.3 1022.3 214C1025.3 199.7 1030.7 185.3 1029 171.2C1027.3 157 1018.7 143 1016.2 128.8C1013.7 114.7 1017.3 100.3 1019.2 86C1021 71.7 1021 57.3 1022.3 43C1023.7 28.7 1026.3 14.3 1027.7 7.2L1029 0L1200 0L1200 7.2C1200 14.3 1200 28.7 1200 43C1200 57.3 1200 71.7 1200 86C1200 100.3 1200 114.7 1200 128.8C1200 143 1200 157 1200 171.2C1200 185.3 1200 199.7 1200 214C1200 228.3 1200 242.7 1200 257C1200 271.3 1200 285.7 1200 292.8L1200 300Z" fill="#3a66db"></path></svg>