<svg id="visual" viewBox="0 0 1200 600" width="1200" height="600" xmlns="http://www.w3.org/2000/svg" xmlns:xlink="http://www.w3.org/1999/xlink" version="1.1"><path d="M0 331L40 360.2C80 389.3 160 447.7 240 469C320 490.3 400 474.7 480 463.2C560 451.7 640 444.3 720 458.7C800 473 880 509 960 515C1040 521 1120 497 1160 485L1200 473L1200 601L1160 601C1120 601 1040 601 960 601C880 601 800 601 720 601C640 601 560 601 480 601C400 601 320 601 240 601C160 601 80 601 40 601L0 601Z" fill="#132dad" stroke-linecap="round" stroke-linejoin="miter"></path></svg>